<?xml version="1.0" encoding="UTF-8" standalone="no"?>
<!-- Created with Inkscape (http://www.inkscape.org/) -->

<svg
   xmlns:dc="http://purl.org/dc/elements/1.1/"
   xmlns:cc="http://creativecommons.org/ns#"
   xmlns:rdf="http://www.w3.org/1999/02/22-rdf-syntax-ns#"
   xmlns:svg="http://www.w3.org/2000/svg"
   xmlns="http://www.w3.org/2000/svg"
   xmlns:sodipodi="http://sodipodi.sourceforge.net/DTD/sodipodi-0.dtd"
   xmlns:inkscape="http://www.inkscape.org/namespaces/inkscape"
   id="svg5699"
   sodipodi:docname="redclip.svg"
   viewBox="0 0 128.00001 128.00001"
   version="1.1"
   inkscape:version="0.92.4 (5da689c313, 2019-01-14)"
   width="128"
   height="128">
  <defs
     id="defs11" />
  <sodipodi:namedview
     id="base"
     bordercolor="#666666"
     inkscape:pageshadow="2"
     inkscape:window-y="0"
     pagecolor="#ffffff"
     inkscape:window-height="852"
     inkscape:window-maximized="1"
     inkscape:zoom="0.98994949"
     inkscape:window-x="0"
     showgrid="false"
     borderopacity="1.0"
     inkscape:current-layer="layer1"
     inkscape:cx="-200.57458"
     inkscape:cy="147.28174"
     units="cm"
     inkscape:window-width="1438"
     inkscape:pageopacity="0.0"
     inkscape:document-units="px" />
  <g
     id="layer1"
     inkscape:label="Layer 1"
     inkscape:groupmode="layer"
     transform="translate(1.5259e-5,-924.35997)">
    <rect
       id="rect4085"
       style="color:#000000;fill:none"
       height="354.32999"
       width="354.32999"
       y="698.03003"
       x="-1.5259e-05" />
    <g
       id="g4883"
       style="fill:#f4d7d7"
       transform="matrix(0.65148343,0,0,0.65148343,-400.44038,910.96919)">
      <path
         id="path4885"
         style="fill:#f4d7d7"
         inkscape:connector-curvature="0"
         d="m 716.26,156.46 -46.27,-46.27 c -7.854,-7.855 -8.039,-20.454 -0.412,-28.082 l 2.396,-2.395 c 7.629,-7.628 20.228,-7.444 28.081,0.412 l 32.775,32.774 c 1.175,1.175 1.175,3.082 0,4.258 -1.175,1.176 -3.081,1.176 -4.256,0 l -32.78,-32.774 c -5.511,-5.508 -14.288,-5.694 -19.567,-0.411 l -2.397,2.394 c -5.279,5.283 -5.095,14.061 0.412,19.569 l 46.271,46.271 c 5.493,5.493 14.236,5.686 19.521,0.45 0.231,-0.274 1.951,-2.324 1.951,-2.324 l 0.178,-0.194 c 2.513,-2.515 1.499,-7.775 -2.215,-11.488 l -33.51,-33.53 c -3.605,-3.606 -8.827,-4.477 -11.4,-1.901 l -1.409,1.406 c -2.575,2.576 -1.703,7.798 1.902,11.404 l 24.47,24.472 c 1.177,1.176 1.177,3.081 0,4.258 -1.174,1.174 -3.08,1.174 -4.255,0 l -24.473,-24.474 c -6.015,-6.014 -6.867,-14.949 -1.901,-19.916 l 1.407,-1.406 c 4.967,-4.968 13.901,-4.115 19.918,1.9 l 33.523,33.525 c 6.123,6.125 7.118,15.099 2.213,20.002 l 0.179,-0.194 -2.081,2.479 -0.178,0.195 c -7.63,7.625 -20.23,7.441 -28.084,-0.414 z" />
    </g>
    <g
       id="g4887"
       style="fill:#de8787"
       transform="matrix(0.65148343,0,0,0.65148343,-400.44038,910.96919)">
      <path
         id="path4889"
         style="fill:#de8787"
         inkscape:connector-curvature="0"
         d="m 720.84,152.54 -46.27,-46.28 c -7.85,-7.851 -8.03,-20.45 -0.41,-28.078 l 2.396,-2.395 c 7.629,-7.628 20.228,-7.444 28.081,0.412 l 32.775,32.775 c 1.175,1.174 1.175,3.082 0,4.257 -1.175,1.175 -3.081,1.175 -4.257,0 l -32.78,-32.774 c -5.511,-5.508 -14.288,-5.693 -19.567,-0.411 l -2.397,2.394 c -5.279,5.283 -5.095,14.061 0.412,19.569 l 46.271,46.271 c 5.493,5.493 14.236,5.686 19.521,0.45 0.231,-0.274 1.951,-2.324 1.951,-2.324 l 0.178,-0.194 c 2.513,-2.515 1.499,-7.775 -2.215,-11.488 L 711.005,101.2 c -3.605,-3.606 -8.827,-4.477 -11.4,-1.901 l -1.409,1.407 c -2.575,2.576 -1.703,7.797 1.902,11.403 l 24.47,24.472 c 1.177,1.176 1.177,3.081 0,4.258 -1.174,1.174 -3.08,1.174 -4.255,0 L 695.84,116.366 c -6.015,-6.015 -6.867,-14.95 -1.901,-19.917 l 1.407,-1.406 c 4.967,-4.968 13.901,-4.115 19.918,1.9 l 33.523,33.524 c 6.123,6.125 7.118,15.099 2.213,20.002 l 0.179,-0.194 -2.081,2.479 -0.178,0.195 c -7.63,7.626 -20.23,7.441 -28.084,-0.413 z" />
    </g>
  </g>
  <metadata
     id="metadata1147">
    <rdf:RDF>
      <cc:Work>
        <dc:format>image/svg+xml</dc:format>
        <dc:type
           rdf:resource="http://purl.org/dc/dcmitype/StillImage" />
        <cc:license
           rdf:resource="http://creativecommons.org/publicdomain/zero/1.0/" />
        <dc:publisher>
          <cc:Agent
             rdf:about="http://openclipart.org/">
            <dc:title>Openclipart</dc:title>
          </cc:Agent>
        </dc:publisher>
        <dc:title></dc:title>
      </cc:Work>
      <cc:License
         rdf:about="http://creativecommons.org/publicdomain/zero/1.0/">
        <cc:permits
           rdf:resource="http://creativecommons.org/ns#Reproduction" />
        <cc:permits
           rdf:resource="http://creativecommons.org/ns#Distribution" />
        <cc:permits
           rdf:resource="http://creativecommons.org/ns#DerivativeWorks" />
      </cc:License>
    </rdf:RDF>
  </metadata>
</svg>
